<?xml version="1.0" encoding="utf-8"?>
<!-- Generator: Adobe Illustrator 15.0.0, SVG Export Plug-In . SVG Version: 6.00 Build 0)  -->
<!DOCTYPE svg PUBLIC "-//W3C//DTD SVG 1.1//EN" "http://www.w3.org/Graphics/SVG/1.1/DTD/svg11.dtd">
<svg version="1.1" id="Layer_1" xmlns="http://www.w3.org/2000/svg" xmlns:xlink="http://www.w3.org/1999/xlink" x="0px" y="0px"
	 width="168.7px" height="70px" viewBox="-370.64 -49.276 397.606 165" enable-background="new -370.64 -49.276 397.606 165"
	 xml:space="preserve">
<rect x="-58.816" y="-48.567" display="none" fill="#FFFFFF" width="80.333" height="72.625"/>
<g>
	
		<radialGradient id="SVGID_1_" cx="141.614" cy="31581.7012" r="80.2694" fx="141.7155" fy="31594.8066" gradientTransform="matrix(-1.3155 0.1012 0.0747 0.2955 -2291.8003 -9200.4395)" gradientUnits="userSpaceOnUse">
		<stop  offset="0" style="stop-color:#000000"/>
		<stop  offset="0.072" style="stop-color:#202020"/>
		<stop  offset="0.2157" style="stop-color:#5A5A5A"/>
		<stop  offset="0.3594" style="stop-color:#8D8D8D"/>
		<stop  offset="0.4998" style="stop-color:#B6B6B6"/>
		<stop  offset="0.6362" style="stop-color:#D6D6D6"/>
		<stop  offset="0.7673" style="stop-color:#EDEDED"/>
		<stop  offset="0.8911" style="stop-color:#FAFAFA"/>
		<stop  offset="1" style="stop-color:#FFFFFF"/>
	</radialGradient>
	<path display="none" opacity="0.62" fill="url(#SVGID_1_)" d="M-284.743,168.003c4.472,17.696,73.63,27.002,154.432,20.8
		c80.816-6.23,142.72-25.633,138.236-43.323c-4.46-17.714-73.625-27.004-154.418-20.789
		C-227.324,130.91-289.204,150.294-284.743,168.003z"/>
	<g>
		<path fill="#47A81A" d="M-305.887-6.592c-0.486,5.903-2.696,10.529-6.639,13.866c-4.033,3.256-9.349,4.877-15.943,4.877
			c-7.681,0-13.537-2.311-17.567-6.937c-4.043-4.425-6.059-10.974-6.059-19.628c0-8.873,2.065-15.519,6.2-19.941
			c4.231-4.625,10.327-6.939,18.305-6.939c6.503,0,11.664,1.621,15.517,4.876c3.626,3.147,5.7,7.576,6.186,13.284h-6.342
			c-2.362,0-4.043-1.038-5.021-3.098c-0.69-1.278-1.527-2.423-2.513-3.398c-1.959-1.47-4.571-2.21-7.827-2.21
			c-4.521,0-8.023,1.467-10.478,4.426c-2.362,2.945-3.544,7.275-3.544,12.999c0,5.503,1.182,9.742,3.544,12.686
			c2.262,3.054,5.649,4.58,10.19,4.58c3.14,0,5.75-0.784,7.826-2.359c1.861-1.484,3.195-3.841,3.968-7.085H-305.887z"/>
		<path fill="#47A81A" d="M-298.802,7.432c-2.065-1.778-3.53-4.159-4.423-7.169c-0.883-3.003-1.324-6.127-1.324-9.369
			c0-2.652,0.372-5.308,1.107-7.972c0.738-2.658,1.883-4.875,3.458-6.655c2.551-2.945,5.852-4.694,9.902-5.232
			c4.029-0.551,7.662-0.225,10.917,0.957c3.747,1.476,6.501,4.042,8.267,7.676c1.67,3.254,2.504,7.038,2.504,11.377
			c0,3.135-0.333,5.843-1.03,8.109c-0.69,2.276-1.575,4.185-2.656,5.771c-2.361,3.233-5.353,5.255-9.003,6.044
			c-3.246,0.884-6.524,0.954-9.825,0.219C-294.199,10.449-296.824,9.199-298.802,7.432z M-291.708-18.552
			c-2.076,2.253-3.005,5.628-2.803,10.111c0.191,4.474,1.03,7.596,2.506,9.373c0.585,0.788,1.621,1.444,3.098,1.992
			c1.482,0.537,2.974,0.596,4.512,0.143c1.512-0.439,2.875-1.538,4.054-3.316c1.177-1.763,1.826-4.624,1.917-8.563
			c0-3.542-0.561-6.201-1.695-7.978c-1.143-1.763-2.444-2.897-3.907-3.398c-1.483-0.485-2.958-0.514-4.435-0.069
			C-289.931-19.818-291.012-19.244-291.708-18.552z"/>
		<path fill="#47A81A" d="M-232.511,10.97h-5.163c-1.483,0-2.687-0.463-3.612-1.402c-0.929-0.942-1.397-2.136-1.397-3.617v-20.082
			c0-2.357-0.729-4.089-2.147-5.165c-1.429-1.083-3.026-1.629-4.803-1.629c-1.764,0-3.339,0.546-4.726,1.629
			c-1.37,1.076-2.076,2.808-2.076,5.165V10.97h-10.324v-23.039c0-6.689,1.751-11.162,5.247-13.426
			c3.492-2.278,7.358-3.493,11.575-3.695c4.333,0,8.326,1.134,11.968,3.398c3.648,2.265,5.458,6.83,5.458,13.723V10.97z"/>
		<path fill="#47A81A" d="M-196.63,10.97h-5.166c-1.473,0-2.676-0.463-3.613-1.402c-0.937-0.942-1.407-2.136-1.407-3.617v-20.082
			c0-2.357-0.722-4.089-2.14-5.165c-1.434-1.083-3.018-1.629-4.796-1.629c-1.782,0-3.352,0.546-4.733,1.629
			c-1.375,1.076-2.052,2.808-2.052,5.165V10.97h-10.353v-23.039c0-6.689,1.754-11.162,5.245-13.426
			c3.495-2.278,7.359-3.493,11.596-3.695c4.326,0,8.326,1.134,11.956,3.398c3.639,2.265,5.463,6.83,5.463,13.723V10.97z"/>
		<path fill="#47A81A" d="M-167.691-1.134h7.382c-1.076,4.132-3.151,7.276-6.197,9.448c-3.057,2.262-6.892,3.389-11.51,3.389
			c-5.628,0-9.991-1.815-13.148-5.448c-3.148-3.56-4.722-8.625-4.722-15.209c0-6.298,1.526-11.233,4.574-14.777
			c3.148-3.635,7.539-5.458,13.137-5.458c5.917,0,10.485,1.777,13.726,5.314c3.147,3.642,4.73,8.72,4.73,15.209
			c0,0.402,0,0.739,0,1.036s0,0.491,0,0.585c0,0.5-0.044,0.848-0.148,1.036h-25.537c0.094,3.054,0.834,5.321,2.206,6.8
			c1.281,1.571,3.207,2.359,5.771,2.359c1.658,0,3.085-0.345,4.273-1.035c0.284-0.109,0.565-0.266,0.803-0.526
			c0.26-0.238,0.521-0.514,0.817-0.798c0.11-0.297,0.469-0.691,1.1-1.182C-169.794-0.891-168.87-1.134-167.691-1.134z
			 M-185.405-12.649h15.054c-0.194-2.662-0.899-4.625-2.054-5.903c-1.299-1.384-3.114-2.067-5.484-2.067
			c-2.149,0-3.926,0.683-5.31,2.067C-184.57-17.184-185.31-15.201-185.405-12.649z"/>
		<path fill="#47A81A" d="M-130.79-1.134h7.385c-1.073,4.132-3.14,7.276-6.209,9.448c-3.042,2.262-6.877,3.389-11.5,3.389
			c-5.608,0-9.99-1.815-13.152-5.448c-3.127-3.56-4.71-8.625-4.71-15.209c0-6.298,1.518-11.233,4.574-14.777
			c3.167-3.635,7.52-5.458,13.142-5.458c5.917,0,10.47,1.777,13.745,5.314c1.747,2.163,3.038,4.679,3.825,7.524h-10.347
			c-0.473-0.976-0.981-1.711-1.466-2.202c-1.291-1.384-3.115-2.067-5.479-2.067c-2.157,0-3.916,0.683-5.307,2.067
			c-1.77,1.966-2.648,5.209-2.648,9.74c0,4.519,0.878,7.73,2.648,9.602c1.301,1.571,3.207,2.359,5.769,2.359
			c1.667,0,3.089-0.345,4.274-1.035c0.292-0.109,0.56-0.266,0.811-0.526c0.252-0.238,0.526-0.514,0.811-0.798
			c0.207-0.297,0.588-0.691,1.182-1.182C-132.845-0.891-131.955-1.134-130.79-1.134z"/>
		<path fill="#47A81A" d="M-104.358,10.97c-3.24,0.205-6.757,0.158-10.557-0.15c-3.788-0.29-5.686-2.713-5.686-7.228v-43.411h5.32
			c1.28,0,2.408,0.49,3.401,1.47c0.994,0.99,1.467,2.172,1.467,3.542v6.654h6.054v2.063c0,1.48-0.478,2.683-1.472,3.623
			c-0.994,0.933-2.168,1.4-3.544,1.4h-1.039V0.79c0,1.673,0.987,2.506,2.962,2.506h3.092V10.97z"/>
	</g>
	<g>
		<g>
			<g>
				<path fill="#F2570A" d="M-59.587,30.041c-3.89,11.11-16.243,12.262-29.248,3.124c1.198,14.646,3.606,28.909,6.955,41.198
					c8.474-6.187,16.311-6.475,19.178,0.111c2.524,5.844-0.181,16.595-6.002,25.319c1.767,0.687,3.785-0.037,5.285-2.092
					c2.477-3.371,10.889,0.166,17.487-0.667c13.164-1.668,25.889-7.661,35.745-17.92C12.738,55.25,12.001,16.972-11.894-5.951
					C-23.672-17.275-38.939-22.8-54.139-22.656c-3.798,0.037-7.596,0.439-11.338,1.182c-3.749,0.762-8.241,5.435-10.668,2.995
					c-2.179-2.207-4.736-2.649-6.509-1.24c3.776,2.56,7.539,5.926,10.954,10C-61.572,2.35-56.087,20.047-59.587,30.041z
					 M-50.198,42.309c0.892,5.205,0.577,13.55-0.7,19.247c-1.412,6.167-3.672,7.834-5.006,3.046
					c-1.552-5.658-1.182-16.329,0.757-22.902C-53.439,35.922-51.211,36.517-50.198,42.309z"/>
			</g>
			<g>
				<path fill="#47A81A" d="M-95.723-16.156c4.726-4.055,15.299-0.011,22.897,9.016c7.406,8.75,11.185,21.023,8.607,27.319
					c-3.273,7.952-14.064,5.869-23.965-5.129C-98.503,3.543-102.029-10.673-95.723-16.156z"/>
			</g>
			<g>
				<path fill="#0D7BD6" d="M-219.37,42.747c4.505-7.342,13.479-7.402,20.102,0.38c7.29,8.463,8.614,21.724,2.732,28.932
					c-5.244,6.454-14.687,4.75-20.59-3.401C-222.589,61.009-223.488,49.507-219.37,42.747z"/>
			</g>
			<g>
				<path fill="#0D7BD6" d="M-84.514,86.282c7.023-8.326,15.036-10.578,17.796-5.221c2.279,4.358-0.387,13.518-5.957,20.391
					c-5.683,6.983-13.382,10.253-16.903,7.308C-94.012,105.001-91.704,94.83-84.514,86.282z"/>
			</g>
			<g>
				<path fill="#47A81A" d="M-163.551,28.012c15.447-15.966,41.481-16.088,56.75-0.452c14.57,14.944,14.495,39.994,0.075,55.159
					c-14.5,15.223-39.632,16.37-55.195,2.333C-178.186,70.26-179.019,44.117-163.551,28.012z"/>
			</g>
		</g>
		<path fill="none" d="M-219.764,86.82c-21.665-44.943-2.8-98.921,42.106-120.589c44.944-21.679,98.917-2.824,120.607,42.106
			c21.652,44.921,2.797,98.902-42.13,120.58C-144.103,150.591-198.082,131.725-219.764,86.82z"/>
	</g>
</g>
<text transform="matrix(0.7813 0 0 1 -349.2073 73.6199)" fill="#47A81A" font-family="'HoboStd'" font-size="60">world</text>
</svg>
